<?xml version="1.0" encoding="UTF-8"?>
<svg version="1.1" xmlns="http://www.w3.org/2000/svg" width="212" height="188">
<path d="M0 0 C69.96 0 139.92 0 212 0 C212 62.04 212 124.08 212 188 C142.04 188 72.08 188 0 188 C0 125.96 0 63.92 0 0 Z " fill="#2F2F2F" transform="translate(0,0)"/>
<path d="M0 0 C7.94100031 6.28033485 14.01015499 13.28383866 19.78515625 21.56640625 C20.2853125 22.25089844 20.78546875 22.93539062 21.30078125 23.640625 C34.99487513 43.6184012 36.75909284 69.4430627 32.78515625 92.56640625 C30.75866448 102.23023886 27.3909533 112.36643716 21.78515625 120.56640625 C21.12515625 120.56640625 20.46515625 120.56640625 19.78515625 120.56640625 C19.74519531 121.25089844 19.70523438 121.93539062 19.6640625 122.640625 C18.39752009 126.85680396 15.75215407 129.2732382 12.72265625 132.37890625 C11.8709082 133.27512695 11.8709082 133.27512695 11.00195312 134.18945312 C9.60506142 135.65677634 8.19625497 137.11274045 6.78515625 138.56640625 C1.83362365 134.20869213 -1.08952124 129.0702773 -4.33984375 123.37890625 C-5.48057758 121.41336949 -6.62252588 119.44853712 -7.765625 117.484375 C-8.33748535 116.49872559 -8.9093457 115.51307617 -9.49853516 114.49755859 C-12.11659781 110.02636937 -14.81528321 105.60602317 -17.52734375 101.19140625 C-18.00123535 100.41901611 -18.47512695 99.64662598 -18.96337891 98.85083008 C-20.04575575 97.08846733 -21.13005516 95.32728552 -22.21484375 93.56640625 C-25.81915404 94.23724671 -28.5062368 95.7567128 -31.64453125 97.62109375 C-32.68738281 98.23597656 -33.73023438 98.85085937 -34.8046875 99.484375 C-35.88878906 100.13019531 -36.97289062 100.77601562 -38.08984375 101.44140625 C-40.23206123 102.71134356 -42.37526088 103.9796258 -44.51953125 105.24609375 C-45.46812012 105.81054199 -46.41670898 106.37499023 -47.39404297 106.95654297 C-50.28520727 108.60656352 -53.22467424 110.10472967 -56.21484375 111.56640625 C-62.2301866 102.16022928 -68.2021965 92.7303231 -73.90234375 83.12890625 C-74.32370605 82.42644775 -74.74506836 81.72398926 -75.17919922 81.00024414 C-77.0170999 77.87673155 -78.45418985 75.10627935 -79.21484375 71.56640625 C-73.98990418 70.70590896 -68.94484475 70.37432648 -63.65234375 70.37890625 C-62.86947998 70.37826172 -62.08661621 70.37761719 -61.2800293 70.37695312 C-55.16706125 70.43164974 -49.35450923 71.06932221 -43.328125 72.12890625 C-39.83458022 72.61984353 -36.73570185 72.89430922 -33.21484375 72.56640625 C-30.77385557 70.71219786 -30.77385557 70.71219786 -29.21484375 68.56640625 C-30.00890625 67.79554687 -30.80296875 67.0246875 -31.62109375 66.23046875 C-32.65260416 65.21771308 -33.68384002 64.20467773 -34.71484375 63.19140625 C-35.23949219 62.68351562 -35.76414062 62.175625 -36.3046875 61.65234375 C-37.64637556 60.32808021 -38.9348019 58.9503476 -40.21484375 57.56640625 C-40.21484375 56.90640625 -40.21484375 56.24640625 -40.21484375 55.56640625 C-39.06886719 55.58703125 -37.92289062 55.60765625 -36.7421875 55.62890625 C-28.23489932 55.81799747 -28.23489932 55.81799747 -20.5625 52.7890625 C-18.34014193 50.19082991 -16.73763167 47.61198209 -15.21484375 44.56640625 C-14.55484375 44.56640625 -13.89484375 44.56640625 -13.21484375 44.56640625 C-12.99828125 43.14328125 -12.99828125 43.14328125 -12.77734375 41.69140625 C-12.21484375 38.56640625 -12.21484375 38.56640625 -11.21484375 36.56640625 C-12.08753906 36.62054688 -12.96023437 36.6746875 -13.859375 36.73046875 C-19.42888045 36.458153 -23.7321931 33.75374551 -28.21484375 30.56640625 C-29.90234375 27.56640625 -29.90234375 27.56640625 -31.21484375 24.56640625 C-38.65717794 17.01835708 -51.2259405 10.14689285 -61.52734375 7.94140625 C-65.88640358 6.99520314 -65.88640358 6.99520314 -67.48046875 4.9140625 C-68.27734375 3.00390625 -68.27734375 3.00390625 -69.21484375 -0.43359375 C-72.05529177 -3.27404177 -74.25975206 -3.16992097 -78.21484375 -3.43359375 C-81.5556928 -2.90518306 -81.5556928 -2.90518306 -84.21484375 -1.43359375 C-85.04817708 0.48307292 -85.04817708 0.48307292 -85.21484375 2.56640625 C-85.87484375 3.55640625 -86.53484375 4.54640625 -87.21484375 5.56640625 C-87.66472656 5.24027344 -88.11460938 4.91414063 -88.578125 4.578125 C-94.1617134 0.78486554 -99.66235989 -0.95205788 -106.21484375 -2.43359375 C-104.98757335 -6.11540494 -103.48835535 -6.63031288 -100.14794922 -8.33959961 C-99.09824951 -8.85018921 -99.09824951 -8.85018921 -98.02734375 -9.37109375 C-97.3120752 -9.72373291 -96.59680664 -10.07637207 -95.85986328 -10.43969727 C-64.792563 -25.28052397 -27.09576865 -20.72597086 0 0 Z " fill="#BBDAE7" transform="translate(171.21484375,20.43359375)"/>
<path d="M0 0 C1.60302734 2.25878906 1.60302734 2.25878906 3.3359375 5.265625 C3.98240234 6.37429932 4.62886719 7.48297363 5.29492188 8.62524414 C5.98834927 9.83345706 6.68170721 11.04170984 7.375 12.25 C8.80573182 14.71467325 10.24263315 17.17572791 11.6796875 19.63671875 C12.04048401 20.25643051 12.40128052 20.87614227 12.77301025 21.51463318 C16.76096618 28.34518362 20.95299895 35.04650007 25.18896484 41.72558594 C25.69379395 42.52899414 26.19862305 43.33240234 26.71875 44.16015625 C27.38293945 45.20635132 27.38293945 45.20635132 28.06054688 46.27368164 C29 48 29 48 29 50 C35.34803268 47.55172293 40.88434706 44.12609871 46.625 40.5 C48.47122563 39.34354478 50.31757575 38.18728826 52.1640625 37.03125 C53.37763428 36.26651367 53.37763428 36.26651367 54.61572266 35.48632812 C55.40253418 34.99583984 56.1893457 34.50535156 57 34 C57.86286621 33.44248047 58.72573242 32.88496094 59.61474609 32.31054688 C62 31 62 31 65 31 C66.71411133 33.31982422 66.71411133 33.31982422 68.58203125 36.5546875 C68.91869308 37.13026398 69.25535492 37.70584045 69.60221863 38.29885864 C70.68287069 40.15166826 71.74788125 42.01294017 72.8125 43.875 C73.51784416 45.09174701 74.22421366 46.30790026 74.93164062 47.5234375 C75.9732942 49.31408916 77.0129348 51.10571 78.04519653 52.90179443 C80.59336998 57.33438654 83.24813203 61.69170026 85.9753418 66.01611328 C87 68 87 68 87 71 C76.94148899 77.06682859 67.37448112 81.91319669 56 85 C55.12730469 85.24492187 54.25460938 85.48984375 53.35546875 85.7421875 C36.06415886 89.71782725 16.25228345 87.64431588 0 81 C-1.43859375 80.43152344 -1.43859375 80.43152344 -2.90625 79.8515625 C-5.27592599 78.91301105 -7.63995328 77.96244855 -10 77 C-10 76.34 -10 75.68 -10 75 C-10.7321875 74.72800781 -11.464375 74.45601563 -12.21875 74.17578125 C-30.0421886 66.64087252 -43.40729127 48.16612407 -51 31 C-51 30.34 -51 29.68 -51 29 C-41.57101099 20.07132469 -13.6984951 -4.56616503 0 0 Z " fill="#BADAE8" transform="translate(81,97)"/>
<path d="M0 0 C2.5 0.125 2.5 0.125 3.5 1.125 C3.6875 3.5625 3.6875 3.5625 3.5 6.125 C2.84 6.785 2.18 7.445 1.5 8.125 C-2.03571429 7.58928571 -2.03571429 7.58928571 -3.5 6.125 C-3.625 3.625 -3.625 3.625 -3.5 1.125 C-2.5 0.125 -2.5 0.125 0 0 Z " fill="#B7D6E3" transform="translate(117.5,44.875)"/>
</svg>
