<svg width="188" height="188" viewBox="0 0 188 188" fill="none" xmlns="http://www.w3.org/2000/svg">
<circle cx="94" cy="94" r="94" fill="black"/>
<path d="M151.215 23.4336C159.156 29.7139 165.225 36.7174 171 45C171.5 45.6845 172 46.369 172.516 47.0742C186.21 67.052 187.974 92.8766 184 116C181.974 125.664 178.606 135.8 173 144C172.34 144 171.68 144 171 144C170.96 144.684 170.92 145.369 170.879 146.074C169.612 150.29 166.967 152.707 163.938 155.812C163.086 156.709 163.086 156.709 162.217 157.623C160.82 159.09 159.411 160.546 158 162C153.048 157.642 150.125 152.504 146.875 146.812C145.734 144.847 144.592 142.882 143.449 140.918C142.877 139.932 142.305 138.947 141.716 137.931C139.098 133.46 136.4 129.04 133.688 124.625C133.214 123.853 132.74 123.08 132.251 122.284C131.169 120.522 130.085 118.761 129 117C125.396 117.671 122.709 119.19 119.57 121.055C118.527 121.67 117.485 122.284 116.41 122.918C115.326 123.564 114.242 124.21 113.125 124.875C110.983 126.145 108.84 127.413 106.695 128.68C105.747 129.244 104.798 129.809 103.821 130.39C100.93 132.04 97.9902 133.538 95 135C88.9847 125.594 83.0126 116.164 77.3125 106.562C76.8911 105.86 76.4698 105.158 76.0356 104.434C74.1977 101.31 72.7607 98.5399 72 95C77.2249 94.1395 82.27 93.8079 87.5625 93.8125C88.3454 93.8118 89.1282 93.8112 89.9348 93.8105C96.0478 93.8652 101.86 94.5029 107.887 95.5625C111.38 96.0534 114.479 96.3279 118 96C120.441 94.1458 120.441 94.1458 122 92C121.206 91.2291 120.412 90.4583 119.594 89.6641C118.562 88.6513 117.531 87.6383 116.5 86.625C115.975 86.1171 115.451 85.6092 114.91 85.0859C113.568 83.7617 112.28 82.3839 111 81C111 80.34 111 79.68 111 79C112.146 79.0206 113.292 79.0412 114.473 79.0625C122.98 79.2516 122.98 79.2516 130.652 76.2226C132.875 73.6244 134.477 71.0456 136 68C136.66 68 137.32 68 138 68C138.217 66.5769 138.217 66.5769 138.438 65.125C139 62 139 62 140 60C139.127 60.0541 138.255 60.1083 137.355 60.1641C131.786 59.8917 127.483 57.1873 123 54C121.312 51 121.312 51 120 48C112.558 40.4519 99.9889 33.5805 89.6875 31.375C85.3284 30.4288 85.3284 30.4288 83.7344 28.3477C82.9375 26.4375 82.9375 26.4375 82 23C79.1596 20.1595 76.9551 20.2637 73 20C69.6592 20.5284 69.6592 20.5284 67 22C66.1667 23.9167 66.1667 23.9167 66 26C65.34 26.99 64.68 27.98 64 29C63.5501 28.6739 63.1002 28.3477 62.6367 28.0117C57.0531 24.2185 51.5525 22.4815 45 21C46.2273 17.3182 47.7265 16.8033 51.0669 15.094C52.1166 14.5834 52.1166 14.5834 53.1875 14.0625C53.9028 13.7099 54.618 13.3572 55.355 12.9939C86.4223 -1.84694 124.119 2.70762 151.215 23.4336Z" fill="#BBDAE7"/>
<path d="M61 100C62.603 102.259 62.603 102.259 64.3359 105.266C64.9824 106.374 65.6289 107.483 66.2949 108.625C66.9883 109.833 67.6817 111.042 68.375 112.25C69.8057 114.715 71.2426 117.176 72.6797 119.637C73.0405 120.256 73.4013 120.876 73.773 121.515C77.761 128.345 81.953 135.047 86.189 141.726C86.6938 142.529 87.1986 143.332 87.7188 144.16C88.3829 145.206 88.3829 145.206 89.0605 146.274C90 148 90 148 90 150C96.348 147.552 101.884 144.126 107.625 140.5C109.471 139.344 111.318 138.187 113.164 137.031C114.378 136.267 114.378 136.267 115.616 135.486C116.403 134.996 117.189 134.505 118 134C118.863 133.442 119.726 132.885 120.615 132.311C123 131 123 131 126 131C127.714 133.32 127.714 133.32 129.582 136.555C129.919 137.13 130.255 137.706 130.602 138.299C131.683 140.152 132.748 142.013 133.812 143.875C134.518 145.092 135.224 146.308 135.932 147.523C136.973 149.314 138.013 151.106 139.045 152.902C141.593 157.334 144.248 161.692 146.975 166.016C148 168 148 168 148 171C137.941 177.067 128.374 181.913 117 185C116.127 185.245 115.255 185.49 114.355 185.742C97.0642 189.718 77.2523 187.644 61 181C59.5614 180.432 59.5614 180.432 58.0938 179.852C55.7241 178.913 53.36 177.962 51 177C51 176.34 51 175.68 51 175C50.2678 174.728 49.5356 174.456 48.7812 174.176C30.9578 166.641 17.5927 148.166 10 131C10 130.34 10 129.68 10 129C19.429 120.071 47.3015 95.4338 61 100Z" fill="#BADAE8"/>
<path d="M97.5 47.875C100 48 100 48 101 49C101.188 51.4375 101.188 51.4375 101 54C100.34 54.66 99.68 55.32 99 56C95.4643 55.4643 95.4643 55.4643 94 54C93.875 51.5 93.875 51.5 94 49C95 48 95 48 97.5 47.875Z" fill="#B7D6E3"/>
</svg>
