<svg width="152" height="30" viewBox="0 0 152 30" fill="none" xmlns="http://www.w3.org/2000/svg">
<ellipse cx="14" cy="15" rx="14" ry="15" fill="black"/>
<path d="M22.5214 3.73934C23.7041 4.74152 24.608 5.8591 25.4681 7.18079C25.5426 7.29002 25.6171 7.39924 25.6938 7.51178C27.7334 10.6997 27.9961 14.8207 27.4043 18.5106C27.1025 20.0527 26.6009 21.6702 25.766 22.9787C25.6677 22.9787 25.5694 22.9787 25.4681 22.9787C25.4622 23.0879 25.4562 23.1971 25.4501 23.3097C25.2614 23.9824 24.8674 24.3681 24.4162 24.8636C24.2894 25.0066 24.2894 25.0066 24.16 25.1526C23.9519 25.3867 23.7421 25.619 23.5319 25.851C22.7945 25.1556 22.3591 24.3357 21.875 23.4275C21.7051 23.1138 21.535 22.8003 21.3648 22.4868C21.2796 22.3296 21.1945 22.1723 21.1067 22.0102C20.7168 21.2967 20.3148 20.5914 19.9109 19.8869C19.8403 19.7637 19.7698 19.6404 19.697 19.5134C19.5358 19.2322 19.3744 18.9511 19.2128 18.6702C18.676 18.7772 18.2758 19.0197 17.8084 19.3172C17.653 19.4153 17.4977 19.5134 17.3377 19.6145C17.1762 19.7176 17.0148 19.8206 16.8484 19.9268C16.5294 20.1294 16.2102 20.3318 15.8908 20.5339C15.7495 20.624 15.6083 20.7141 15.4627 20.8069C15.0321 21.0702 14.5943 21.3092 14.149 21.5425C13.2531 20.0415 12.3636 18.5367 11.5146 17.0046C11.4519 16.8925 11.3891 16.7804 11.3245 16.6649C11.0507 16.1665 10.8367 15.7244 10.7234 15.1595C11.5016 15.0222 12.253 14.9693 13.0412 14.97C13.1578 14.9699 13.2744 14.9698 13.3946 14.9697C14.305 14.9784 15.1707 15.0802 16.0683 15.2493C16.5886 15.3276 17.0501 15.3714 17.5745 15.3191C17.938 15.0232 17.938 15.0232 18.1702 14.6808C18.052 14.5578 17.9337 14.4348 17.8119 14.308C17.6582 14.1464 17.5046 13.9848 17.3511 13.8231C17.2729 13.742 17.1948 13.661 17.1143 13.5775C16.9145 13.3662 16.7226 13.1463 16.5319 12.9255C16.5319 12.8202 16.5319 12.7148 16.5319 12.6063C16.7026 12.6096 16.8733 12.6129 17.0491 12.6163C18.3162 12.6465 18.3162 12.6465 19.4589 12.1631C19.7899 11.7485 20.0285 11.337 20.2553 10.851C20.3536 10.851 20.4519 10.851 20.5532 10.851C20.5855 10.6239 20.5855 10.6239 20.6184 10.3922C20.7021 9.89356 20.7021 9.89356 20.8511 9.57441C20.7211 9.58305 20.5911 9.59169 20.4572 9.60059C19.6277 9.55713 18.9868 9.12558 18.3192 8.61696C18.0678 8.13824 18.0678 8.13824 17.8724 7.65951C16.7639 6.45504 14.892 5.35853 13.3577 5.00659C12.7085 4.8556 12.7085 4.8556 12.4711 4.5235C12.3524 4.21869 12.3524 4.21869 12.2128 3.67015C11.7897 3.21689 11.4614 3.2335 10.8724 3.19143C10.3748 3.27575 10.3748 3.27575 9.97874 3.51058C9.85463 3.81643 9.85463 3.81643 9.82981 4.14887C9.73151 4.30685 9.63321 4.46483 9.53194 4.6276C9.46493 4.57556 9.39793 4.52351 9.32889 4.46989C8.4973 3.86459 7.67805 3.58742 6.70215 3.351C6.88493 2.76348 7.10822 2.68131 7.60573 2.40855C7.76207 2.32708 7.76207 2.32708 7.92156 2.24395C8.02809 2.18768 8.13462 2.13141 8.24438 2.07343C12.8714 -0.294784 18.4858 0.432006 22.5214 3.73934Z" fill="#BBDAE7"/>
<path d="M9.08513 15.9574C9.32387 16.3178 9.32387 16.3178 9.58197 16.7976C9.67825 16.9746 9.77453 17.1515 9.87373 17.3338C9.97701 17.5266 10.0803 17.7194 10.1835 17.9122C10.3966 18.3055 10.6106 18.6982 10.8247 19.0909C10.8784 19.1898 10.9321 19.2887 10.9875 19.3906C11.5814 20.4806 12.2058 21.5499 12.8367 22.6157C12.9119 22.7439 12.987 22.8721 13.0645 23.0042C13.1634 23.1712 13.1634 23.1712 13.2644 23.3415C13.4043 23.617 13.4043 23.617 13.4043 23.9361C14.3497 23.5454 15.1743 22.9988 16.0293 22.4202C16.3042 22.2356 16.5792 22.0511 16.8542 21.8666C17.035 21.7446 17.035 21.7446 17.2194 21.6201C17.3366 21.5418 17.4538 21.4636 17.5745 21.3829C17.703 21.294 17.8315 21.205 17.9639 21.1133C18.3192 20.9042 18.3192 20.9042 18.766 20.9042C19.0213 21.2744 19.0213 21.2744 19.2995 21.7906C19.3496 21.8824 19.3998 21.9743 19.4514 22.0689C19.6124 22.3646 19.771 22.6616 19.9295 22.9587C20.0346 23.1529 20.1398 23.3469 20.2452 23.5409C20.4003 23.8267 20.5551 24.1126 20.7089 24.3992C21.0884 25.1065 21.4838 25.8018 21.89 26.4919C22.0426 26.8085 22.0426 26.8085 22.0426 27.2872C20.5445 28.2553 19.1196 29.0286 17.4256 29.5212C17.2956 29.5603 17.1656 29.5994 17.0317 29.6397C14.4564 30.2741 11.5057 29.9432 9.08513 28.8829C8.87087 28.7922 8.87087 28.7922 8.65228 28.6997C8.29935 28.5499 7.94726 28.3982 7.59576 28.2446C7.59576 28.1393 7.59576 28.034 7.59576 27.9255C7.48671 27.8821 7.37766 27.8387 7.26531 27.7939C4.61076 26.5916 2.62021 23.6435 1.48938 20.9042C1.48938 20.7989 1.48938 20.6936 1.48938 20.585C2.8937 19.1603 7.04492 15.2287 9.08513 15.9574Z" fill="#BADAE8"/>
<path d="M14.5213 7.63965C14.8937 7.6596 14.8937 7.6596 15.0426 7.81917C15.0705 8.20813 15.0705 8.20813 15.0426 8.61704C14.9443 8.72236 14.846 8.82768 14.7447 8.93619C14.2181 8.8507 14.2181 8.8507 14 8.61704C13.9814 8.21811 13.9814 8.21811 14 7.81917C14.149 7.6596 14.149 7.6596 14.5213 7.63965Z" fill="#B7D6E3"/>
<path d="M41.6367 23.264C40.346 23.264 39.224 23.0513 38.2707 22.626C37.3173 22.2007 36.5473 21.6213 35.9607 20.888L37.8747 18.776C38.432 19.392 39.0407 19.8467 39.7007 20.14C40.3753 20.4333 41.0573 20.58 41.7467 20.58C42.5387 20.58 43.14 20.404 43.5507 20.052C43.9613 19.7 44.1667 19.194 44.1667 18.534C44.1667 17.9913 44.0053 17.5807 43.6827 17.302C43.3747 17.0233 42.8467 16.8253 42.0987 16.708L40.4927 16.444C39.114 16.2093 38.1167 15.7033 37.5007 14.926C36.8847 14.134 36.5767 13.1733 36.5767 12.044C36.5767 10.5627 37.0607 9.41867 38.0287 8.612C38.9967 7.79067 40.3533 7.38 42.0987 7.38C43.2867 7.38 44.3207 7.56333 45.2007 7.93C46.0807 8.29667 46.792 8.79533 47.3347 9.426L45.4647 11.516C45.054 11.0613 44.57 10.7093 44.0127 10.46C43.4553 10.196 42.8247 10.064 42.1207 10.064C40.6393 10.064 39.8987 10.6727 39.8987 11.89C39.8987 12.418 40.06 12.814 40.3827 13.078C40.72 13.342 41.2627 13.54 42.0107 13.672L43.6167 13.958C44.8633 14.178 45.824 14.6473 46.4987 15.366C47.1733 16.0847 47.5107 17.0527 47.5107 18.27C47.5107 18.9887 47.386 19.656 47.1367 20.272C46.8873 20.8733 46.5133 21.4013 46.0147 21.856C45.516 22.296 44.9 22.6407 44.1667 22.89C43.448 23.1393 42.6047 23.264 41.6367 23.264ZM55.2901 23C54.1167 23 53.2441 22.692 52.6721 22.076C52.1001 21.46 51.8141 20.6753 51.8141 19.722V14.178H48.7341V11.648H50.7361C51.2201 11.648 51.5647 11.5527 51.7701 11.362C51.9754 11.1713 52.0781 10.8193 52.0781 10.306V7.644H55.0701V11.648H59.4921V14.178H55.0701V20.47H59.4921V23H55.2901ZM66.9415 23.264C66.0615 23.264 65.2695 23.132 64.5655 22.868C63.8615 22.5893 63.2602 22.1933 62.7615 21.68C62.2775 21.1667 61.9035 20.5433 61.6395 19.81C61.3755 19.0767 61.2435 18.248 61.2435 17.324C61.2435 16.4 61.3755 15.5713 61.6395 14.838C61.9035 14.1047 62.2775 13.4813 62.7615 12.968C63.2602 12.4547 63.8615 12.066 64.5655 11.802C65.2695 11.5233 66.0615 11.384 66.9415 11.384C67.8215 11.384 68.6135 11.5233 69.3175 11.802C70.0215 12.066 70.6155 12.4547 71.0995 12.968C71.5982 13.4813 71.9795 14.1047 72.2435 14.838C72.5075 15.5713 72.6395 16.4 72.6395 17.324C72.6395 18.248 72.5075 19.0767 72.2435 19.81C71.9795 20.5433 71.5982 21.1667 71.0995 21.68C70.6155 22.1933 70.0215 22.5893 69.3175 22.868C68.6135 23.132 67.8215 23.264 66.9415 23.264ZM66.9415 20.844C67.6748 20.844 68.2468 20.6167 68.6575 20.162C69.0682 19.7073 69.2735 19.062 69.2735 18.226V16.422C69.2735 15.586 69.0682 14.9407 68.6575 14.486C68.2468 14.0313 67.6748 13.804 66.9415 13.804C66.2082 13.804 65.6362 14.0313 65.2255 14.486C64.8148 14.9407 64.6095 15.586 64.6095 16.422V18.226C64.6095 19.062 64.8148 19.7073 65.2255 20.162C65.6362 20.6167 66.2082 20.844 66.9415 20.844ZM79.9349 23.264C79.0402 23.264 78.2336 23.132 77.5149 22.868C76.8109 22.5893 76.2096 22.1933 75.7109 21.68C75.2269 21.1667 74.8529 20.5433 74.5889 19.81C74.3249 19.0767 74.1929 18.248 74.1929 17.324C74.1929 16.4 74.3249 15.5713 74.5889 14.838C74.8529 14.1047 75.2269 13.4813 75.7109 12.968C76.2096 12.4547 76.8109 12.066 77.5149 11.802C78.2336 11.5233 79.0329 11.384 79.9129 11.384C81.1596 11.384 82.1569 11.6407 82.9049 12.154C83.6676 12.6527 84.2469 13.32 84.6429 14.156L82.1349 15.52C81.9296 15.08 81.6582 14.7133 81.3209 14.42C80.9982 14.1267 80.5289 13.98 79.9129 13.98C79.1649 13.98 78.5856 14.2 78.1749 14.64C77.7789 15.0653 77.5809 15.652 77.5809 16.4V18.248C77.5809 18.996 77.7789 19.59 78.1749 20.03C78.5856 20.4553 79.1796 20.668 79.9569 20.668C80.5876 20.668 81.0789 20.5213 81.4309 20.228C81.7976 19.9347 82.1056 19.5533 82.3549 19.084L84.8189 20.492C84.4082 21.328 83.8069 22.0027 83.0149 22.516C82.2376 23.0147 81.2109 23.264 79.9349 23.264ZM86.8343 6.72H90.0903V15.96H90.2443L91.7623 14.178L94.1383 11.648H97.8783L93.4783 16.136L98.3403 23H94.4683L91.1683 17.984L90.0903 19.062V23H86.8343V6.72ZM110.938 23H107.176L105.592 19.942L104.514 17.522H104.316L103.216 19.942L101.588 23H98.1337L102.446 15.058L98.4197 7.644H102.182L103.436 10.086L104.558 12.55H104.734L105.878 10.086L107.198 7.644H110.652L106.626 15.102L110.938 23ZM119.003 16.576H115.131V23H111.809V7.644H115.131V13.87H119.003V7.644H122.325V23H119.003V16.576ZM131.513 20.932H131.381C131.131 21.5773 130.735 22.1273 130.193 22.582C129.665 23.0367 128.946 23.264 128.037 23.264C127.494 23.264 126.995 23.176 126.541 23C126.086 22.8093 125.697 22.5307 125.375 22.164C125.052 21.7973 124.795 21.35 124.605 20.822C124.429 20.294 124.341 19.6853 124.341 18.996V11.648H127.597V18.556C127.597 20.0227 128.235 20.756 129.511 20.756C129.76 20.756 130.002 20.7267 130.237 20.668C130.486 20.5947 130.699 20.492 130.875 20.36C131.065 20.2133 131.219 20.0373 131.337 19.832C131.454 19.6267 131.513 19.3847 131.513 19.106V11.648H134.769V23H131.513V20.932ZM136.828 6.72H140.084V13.716H140.238C140.517 13.0413 140.92 12.484 141.448 12.044C141.976 11.604 142.695 11.384 143.604 11.384C144.235 11.384 144.807 11.5013 145.32 11.736C145.848 11.9707 146.295 12.33 146.662 12.814C147.043 13.298 147.337 13.914 147.542 14.662C147.762 15.41 147.872 16.2973 147.872 17.324C147.872 18.3507 147.762 19.238 147.542 19.986C147.337 20.734 147.043 21.35 146.662 21.834C146.295 22.318 145.848 22.6773 145.32 22.912C144.807 23.1467 144.235 23.264 143.604 23.264C142.695 23.264 141.976 23.0513 141.448 22.626C140.92 22.186 140.517 21.6213 140.238 20.932H140.084V23H136.828V6.72ZM142.196 20.734C142.929 20.734 143.494 20.514 143.89 20.074C144.286 19.6193 144.484 18.996 144.484 18.204V16.444C144.484 15.652 144.286 15.036 143.89 14.596C143.494 14.1413 142.929 13.914 142.196 13.914C141.624 13.914 141.125 14.0533 140.7 14.332C140.289 14.6107 140.084 15.0507 140.084 15.652V18.996C140.084 19.5973 140.289 20.0373 140.7 20.316C141.125 20.5947 141.624 20.734 142.196 20.734Z" fill="black"/>
</svg>
