<svg width="152" height="30" viewBox="0 0 152 30" fill="none" xmlns="http://www.w3.org/2000/svg">
<ellipse cx="14" cy="15" rx="14" ry="15" fill="black"/>
<path d="M22.5214 3.73934C23.7041 4.74152 24.608 5.8591 25.4681 7.18079C25.5426 7.29002 25.6171 7.39924 25.6938 7.51178C27.7334 10.6997 27.9961 14.8207 27.4043 18.5106C27.1025 20.0527 26.6009 21.6702 25.766 22.9787C25.6677 22.9787 25.5694 22.9787 25.4681 22.9787C25.4622 23.0879 25.4562 23.1971 25.4501 23.3097C25.2614 23.9824 24.8674 24.368 24.4162 24.8636C24.2894 25.0066 24.2894 25.0066 24.16 25.1526C23.9519 25.3867 23.7421 25.619 23.5319 25.851C22.7945 25.1556 22.3591 24.3357 21.875 23.4275C21.7051 23.1138 21.535 22.8003 21.3648 22.4868C21.2796 22.3296 21.1945 22.1723 21.1067 22.0102C20.7168 21.2967 20.3148 20.5914 19.9109 19.8869C19.8403 19.7637 19.7698 19.6404 19.697 19.5134C19.5358 19.2322 19.3744 18.9511 19.2128 18.6702C18.676 18.7772 18.2758 19.0197 17.8084 19.3172C17.653 19.4153 17.4977 19.5134 17.3377 19.6145C17.1762 19.7176 17.0148 19.8206 16.8484 19.9268C16.5294 20.1294 16.2102 20.3318 15.8908 20.5339C15.7495 20.624 15.6083 20.7141 15.4627 20.8069C15.0321 21.0702 14.5943 21.3092 14.149 21.5425C13.2531 20.0415 12.3636 18.5367 11.5146 17.0046C11.4519 16.8925 11.3891 16.7804 11.3245 16.6649C11.0507 16.1665 10.8367 15.7244 10.7234 15.1595C11.5016 15.0222 12.253 14.9693 13.0412 14.97C13.1578 14.9699 13.2744 14.9698 13.3946 14.9697C14.305 14.9784 15.1707 15.0802 16.0683 15.2493C16.5886 15.3276 17.0501 15.3714 17.5745 15.3191C17.938 15.0232 17.938 15.0232 18.1702 14.6808C18.052 14.5578 17.9337 14.4348 17.8119 14.308C17.6582 14.1464 17.5046 13.9848 17.3511 13.8231C17.2729 13.742 17.1948 13.661 17.1143 13.5775C16.9145 13.3662 16.7226 13.1463 16.5319 12.9255C16.5319 12.8202 16.5319 12.7148 16.5319 12.6063C16.7026 12.6096 16.8733 12.6129 17.0491 12.6163C18.3162 12.6465 18.3162 12.6465 19.4589 12.1631C19.7899 11.7485 20.0285 11.337 20.2553 10.851C20.3536 10.851 20.4519 10.851 20.5532 10.851C20.5855 10.6239 20.5855 10.6239 20.6184 10.3922C20.7021 9.89356 20.7021 9.89356 20.8511 9.57441C20.7211 9.58305 20.5911 9.59169 20.4572 9.60059C19.6277 9.55713 18.9868 9.12558 18.3192 8.61696C18.0678 8.13824 18.0678 8.13824 17.8724 7.65951C16.7639 6.45504 14.892 5.35853 13.3577 5.00659C12.7085 4.8556 12.7085 4.8556 12.4711 4.5235C12.3524 4.21869 12.3524 4.21869 12.2128 3.67015C11.7897 3.21689 11.4614 3.2335 10.8724 3.19143C10.3748 3.27575 10.3748 3.27575 9.97874 3.51058C9.85463 3.81643 9.85463 3.81643 9.82981 4.14887C9.73151 4.30685 9.63321 4.46483 9.53194 4.6276C9.46493 4.57556 9.39793 4.52351 9.32889 4.46989C8.4973 3.86459 7.67805 3.58742 6.70215 3.351C6.88493 2.76348 7.10822 2.68131 7.60573 2.40855C7.76207 2.32708 7.76207 2.32708 7.92156 2.24395C8.02809 2.18768 8.13462 2.13141 8.24438 2.07343C12.8714 -0.294784 18.4858 0.432006 22.5214 3.73934Z" fill="#BBDAE7"/>
<path d="M9.08512 15.9574C9.32387 16.3178 9.32387 16.3178 9.58197 16.7976C9.67825 16.9746 9.77453 17.1515 9.87373 17.3338C9.97701 17.5266 10.0803 17.7194 10.1835 17.9122C10.3966 18.3055 10.6106 18.6982 10.8247 19.0909C10.8784 19.1898 10.9321 19.2887 10.9875 19.3906C11.5814 20.4806 12.2058 21.5499 12.8367 22.6157C12.9119 22.7439 12.987 22.8721 13.0645 23.0042C13.1634 23.1712 13.1634 23.1712 13.2644 23.3415C13.4043 23.617 13.4043 23.617 13.4043 23.9361C14.3497 23.5454 15.1743 22.9988 16.0293 22.4202C16.3042 22.2356 16.5792 22.0511 16.8542 21.8666C17.035 21.7446 17.035 21.7446 17.2194 21.6201C17.3366 21.5418 17.4538 21.4636 17.5745 21.3829C17.703 21.294 17.8315 21.205 17.9639 21.1133C18.3192 20.9042 18.3192 20.9042 18.766 20.9042C19.0213 21.2744 19.0213 21.2744 19.2995 21.7906C19.3496 21.8824 19.3998 21.9743 19.4514 22.0689C19.6124 22.3646 19.771 22.6616 19.9295 22.9587C20.0346 23.1529 20.1398 23.3469 20.2452 23.5409C20.4003 23.8267 20.5551 24.1126 20.7089 24.3992C21.0884 25.1065 21.4838 25.8018 21.89 26.4919C22.0426 26.8084 22.0426 26.8084 22.0426 27.2872C20.5445 28.2553 19.1196 29.0286 17.4256 29.5212C17.2956 29.5603 17.1656 29.5994 17.0317 29.6397C14.4564 30.2741 11.5057 29.9432 9.08512 28.8829C8.87087 28.7922 8.87087 28.7922 8.65228 28.6997C8.29935 28.5499 7.94726 28.3982 7.59576 28.2446C7.59576 28.1393 7.59576 28.034 7.59576 27.9255C7.48671 27.8821 7.37767 27.8387 7.26531 27.7939C4.61076 26.5916 2.62021 23.6435 1.48938 20.9042C1.48938 20.7989 1.48938 20.6936 1.48938 20.585C2.8937 19.1603 7.04492 15.2287 9.08512 15.9574Z" fill="#BADAE8"/>
<path d="M14.5213 7.63965C14.8937 7.6596 14.8937 7.6596 15.0426 7.81917C15.0705 8.20813 15.0705 8.20813 15.0426 8.61704C14.9443 8.72236 14.846 8.82768 14.7447 8.93619C14.2181 8.8507 14.2181 8.8507 14 8.61704C13.9814 8.21811 13.9814 8.21811 14 7.81917C14.149 7.6596 14.149 7.6596 14.5213 7.63965Z" fill="#B7D6E3"/>
<path d="M41.3767 23.264C40.086 23.264 38.964 23.0513 38.0107 22.626C37.0573 22.2007 36.2873 21.6213 35.7007 20.888L37.6147 18.776C38.172 19.392 38.7807 19.8467 39.4407 20.14C40.1153 20.4333 40.7973 20.58 41.4867 20.58C42.2787 20.58 42.88 20.404 43.2907 20.052C43.7013 19.7 43.9067 19.194 43.9067 18.534C43.9067 17.9913 43.7453 17.5807 43.4227 17.302C43.1147 17.0233 42.5867 16.8253 41.8387 16.708L40.2327 16.444C38.854 16.2093 37.8567 15.7033 37.2407 14.926C36.6247 14.134 36.3167 13.1733 36.3167 12.044C36.3167 10.5627 36.8007 9.41867 37.7687 8.612C38.7367 7.79067 40.0933 7.38 41.8387 7.38C43.0267 7.38 44.0607 7.56333 44.9407 7.93C45.8207 8.29667 46.532 8.79533 47.0747 9.426L45.2047 11.516C44.794 11.0613 44.31 10.7093 43.7527 10.46C43.1953 10.196 42.5647 10.064 41.8607 10.064C40.3793 10.064 39.6387 10.6727 39.6387 11.89C39.6387 12.418 39.8 12.814 40.1227 13.078C40.46 13.342 41.0027 13.54 41.7507 13.672L43.3567 13.958C44.6033 14.178 45.564 14.6473 46.2387 15.366C46.9133 16.0847 47.2507 17.0527 47.2507 18.27C47.2507 18.9887 47.126 19.656 46.8767 20.272C46.6273 20.8733 46.2533 21.4013 45.7547 21.856C45.256 22.296 44.64 22.6407 43.9067 22.89C43.188 23.1393 42.3447 23.264 41.3767 23.264ZM55.4701 23C54.2967 23 53.4241 22.692 52.8521 22.076C52.2801 21.46 51.9941 20.6753 51.9941 19.722V14.178H48.9141V11.648H50.9161C51.4001 11.648 51.7447 11.5527 51.9501 11.362C52.1554 11.1713 52.2581 10.8193 52.2581 10.306V7.644H55.2501V11.648H59.6721V14.178H55.2501V20.47H59.6721V23H55.4701ZM67.5615 23.264C66.6815 23.264 65.8895 23.132 65.1855 22.868C64.4815 22.5893 63.8802 22.1933 63.3815 21.68C62.8975 21.1667 62.5235 20.5433 62.2595 19.81C61.9955 19.0767 61.8635 18.248 61.8635 17.324C61.8635 16.4 61.9955 15.5713 62.2595 14.838C62.5235 14.1047 62.8975 13.4813 63.3815 12.968C63.8802 12.4547 64.4815 12.066 65.1855 11.802C65.8895 11.5233 66.6815 11.384 67.5615 11.384C68.4415 11.384 69.2335 11.5233 69.9375 11.802C70.6415 12.066 71.2355 12.4547 71.7195 12.968C72.2182 13.4813 72.5995 14.1047 72.8635 14.838C73.1275 15.5713 73.2595 16.4 73.2595 17.324C73.2595 18.248 73.1275 19.0767 72.8635 19.81C72.5995 20.5433 72.2182 21.1667 71.7195 21.68C71.2355 22.1933 70.6415 22.5893 69.9375 22.868C69.2335 23.132 68.4415 23.264 67.5615 23.264ZM67.5615 20.844C68.2948 20.844 68.8668 20.6167 69.2775 20.162C69.6882 19.7073 69.8935 19.062 69.8935 18.226V16.422C69.8935 15.586 69.6882 14.9407 69.2775 14.486C68.8668 14.0313 68.2948 13.804 67.5615 13.804C66.8282 13.804 66.2562 14.0313 65.8455 14.486C65.4348 14.9407 65.2295 15.586 65.2295 16.422V18.226C65.2295 19.062 65.4348 19.7073 65.8455 20.162C66.2562 20.6167 66.8282 20.844 67.5615 20.844ZM80.9949 23.264C80.1002 23.264 79.2936 23.132 78.5749 22.868C77.8709 22.5893 77.2696 22.1933 76.7709 21.68C76.2869 21.1667 75.9129 20.5433 75.6489 19.81C75.3849 19.0767 75.2529 18.248 75.2529 17.324C75.2529 16.4 75.3849 15.5713 75.6489 14.838C75.9129 14.1047 76.2869 13.4813 76.7709 12.968C77.2696 12.4547 77.8709 12.066 78.5749 11.802C79.2936 11.5233 80.0929 11.384 80.9729 11.384C82.2196 11.384 83.2169 11.6407 83.9649 12.154C84.7276 12.6527 85.3069 13.32 85.7029 14.156L83.1949 15.52C82.9896 15.08 82.7182 14.7133 82.3809 14.42C82.0582 14.1267 81.5889 13.98 80.9729 13.98C80.2249 13.98 79.6456 14.2 79.2349 14.64C78.8389 15.0653 78.6409 15.652 78.6409 16.4V18.248C78.6409 18.996 78.8389 19.59 79.2349 20.03C79.6456 20.4553 80.2396 20.668 81.0169 20.668C81.6476 20.668 82.1389 20.5213 82.4909 20.228C82.8576 19.9347 83.1656 19.5533 83.4149 19.084L85.8789 20.492C85.4682 21.328 84.8669 22.0027 84.0749 22.516C83.2976 23.0147 82.2709 23.264 80.9949 23.264ZM88.3343 6.72H91.5903V15.96H91.7443L93.2623 14.178L95.6383 11.648H99.3783L94.9783 16.136L99.8403 23H95.9683L92.6683 17.984L91.5903 19.062V23H88.3343V6.72ZM112.878 23H109.116L107.532 19.942L106.454 17.522H106.256L105.156 19.942L103.528 23H100.074L104.386 15.058L100.36 7.644H104.122L105.376 10.086L106.498 12.55H106.674L107.818 10.086L109.138 7.644H112.592L108.566 15.102L112.878 23ZM121.383 16.576H117.511V23H114.189V7.644H117.511V13.87H121.383V7.644H124.705V23H121.383V16.576ZM134.333 20.932H134.201C133.951 21.5773 133.555 22.1273 133.013 22.582C132.485 23.0367 131.766 23.264 130.857 23.264C130.314 23.264 129.815 23.176 129.361 23C128.906 22.8093 128.517 22.5307 128.195 22.164C127.872 21.7973 127.615 21.35 127.425 20.822C127.249 20.294 127.161 19.6853 127.161 18.996V11.648H130.417V18.556C130.417 20.0227 131.055 20.756 132.331 20.756C132.58 20.756 132.822 20.7267 133.057 20.668C133.306 20.5947 133.519 20.492 133.695 20.36C133.885 20.2133 134.039 20.0373 134.157 19.832C134.274 19.6267 134.333 19.3847 134.333 19.106V11.648H137.589V23H134.333V20.932ZM140.088 6.72H143.344V13.716H143.498C143.777 13.0413 144.18 12.484 144.708 12.044C145.236 11.604 145.955 11.384 146.864 11.384C147.495 11.384 148.067 11.5013 148.58 11.736C149.108 11.9707 149.555 12.33 149.922 12.814C150.303 13.298 150.597 13.914 150.802 14.662C151.022 15.41 151.132 16.2973 151.132 17.324C151.132 18.3507 151.022 19.238 150.802 19.986C150.597 20.734 150.303 21.35 149.922 21.834C149.555 22.318 149.108 22.6773 148.58 22.912C148.067 23.1467 147.495 23.264 146.864 23.264C145.955 23.264 145.236 23.0513 144.708 22.626C144.18 22.186 143.777 21.6213 143.498 20.932H143.344V23H140.088V6.72ZM145.456 20.734C146.189 20.734 146.754 20.514 147.15 20.074C147.546 19.6193 147.744 18.996 147.744 18.204V16.444C147.744 15.652 147.546 15.036 147.15 14.596C146.754 14.1413 146.189 13.914 145.456 13.914C144.884 13.914 144.385 14.0533 143.96 14.332C143.549 14.6107 143.344 15.0507 143.344 15.652V18.996C143.344 19.5973 143.549 20.0373 143.96 20.316C144.385 20.5947 144.884 20.734 145.456 20.734Z" fill="white"/>
</svg>
